<?xml version="1.0" encoding="UTF-8"?><svg id="Layer_1" xmlns="http://www.w3.org/2000/svg" viewBox="0 0 328.79 841.89"><path d="M161.36,314.99c2.7-.04,4.65.67,5.4,3.42,1.05,32.58,3.23,65.08,4.12,97.64.1,3.79,2.27,9.83-3.47,10.5-7.05.83-15.12.65-22.25.8-6.55.13-12.82.48-19.33.85-4.08.23-8.62,1.92-9.27-3.92-1.19-10.74-.71-23.25-1.22-34.22-1.01-21.8-2.78-43.67-3.33-65.48-.18-7.34.98-7.59,8.05-8.05,13.38-.86,27.89-1.33,41.29-1.55Z"/><path d="M126.34,571.67c.72-.2,1.41-.22,1.68.59.51,4.64.22,9.32.46,13.96,1.45,28.52,3.15,57.1,3.73,85.68.05,2.6,1.58,5.9-2.67,6.4-8.85,1.04-19.07-.36-28.05,1.18-4.09-.45-8.64.38-12.7.47-2.04.05-10.5.32-11.74-.23-2.54-1.13-1.5-10.1-1.64-12.78-1.44-28.94-3.09-57.96-4.15-86.9-.22-5.97.1-6.01,5.99-6.4,14.28-.95,28.89-1.25,43.21-1.67,2.9-.09,2.79.54,5.89-.3Z"/><path d="M199.62,568.82c1.8-.08,4.57-.73,5.02,1.74.6,3.32.25,7.69.42,11.11,1.58,30.37,2.87,60.85,3.93,91.29-.97,3.14-5.98,1.88-8.68,2.02-10.27.53-20.59,1.34-30.84,1.68-5.18.17-10.4.15-15.58.32-.68-.2-1.29-1.2-1.43-1.86-.78-3.62-.28-8.55-.48-12.29-1.65-30.05-2.64-60.07-4.05-90.13.58-.91,1.39-1.94,2.57-1.96,16.42-.19,32.75-1.2,49.13-1.92Z"/><path d="M207.86,691.57c1.48-.05,2.46,1.6,2.56,3-.4,14.68.31,29.47.42,44.08.15,20.37.71,34.37-11.38,51.68-7.43,10.63-23.17,22.8-36.27,24.67-2.5.36-4.59.25-5.65-2.39s.66-4.7.62-6.76c-.77-35.79-3.56-71.7-4.98-107.55-.06-1.54-.1-3.14,1.26-4.12,1.72-1.24,9.84-.49,12.56-.61,7.42-.34,14.9-.99,22.22-1.25,6.21-.22,12.49-.56,18.65-.74Z"/><path d="M124.3,694.9c2.38-.06,8.59-1.17,9.13,1.74.26,4.52.18,9.09.41,13.6,1.6,32.44,3.69,65.14,4.56,97.62.18,6.68,1.34,8.87-6.29,7.95-25.8-3.12-47.55-28.16-50.93-53.26-2.62-19.41-2.1-40.18-4.55-59.72.36-2.3-1.17-5.51,1.9-5.96,3.63-.54,7.85-.26,11.52-.42,11.38-.49,22.85-1.27,34.27-1.54Z"/><path d="M250.67,311.31c4.22-.1,9.89-1.54,9.88,4.5-14.85,33.82-25.79,69.22-31.84,105.78-1.67,2.63-4.99,2.71-7.8,2.9-5.66.39-11.63.18-17.3.4-3.46.14-10.78,2.49-11.95-2.43-.41-1.72-.44-5.56-.58-7.65-2.04-29.65-3.04-60.92-3.69-90.66-.06-2.91-1.87-8.13,1.74-9.76,1.33-.6,6.95-1.78,8.31-1.53,2.9.54,2.45.41,5.35.37,15.98-.21,31.93-1.53,47.89-1.92Z"/><path d="M147.75,186.46c10.51-1,7.51,8.06,7.9,15.35,1.29,24.17,2.32,48.32,3.29,72.52.28,7.02,1.37,14.39,1.21,21.37-.04,1.59-1.23,3.68-2.82,4.18-.88.28-4.38.52-5.58.59-9.22.53-18.36.57-27.59.81-3.58.09-8,.83-11.55.8-4.51-.04-4.83-3.01-5.1-6.76-.8-11.21-.7-22.57-1.22-33.8-1-21.41-2.33-42.85-2.88-64.28-.08-2.98-1.67-8.06,3.09-8.82,4.22-.67,10.02-.21,14.4-.42,8.94-.42,17.97-.7,26.85-1.55Z"/><path d="M212.81,183.97c2.55-.06,4.7,1.06,5.02,3.8.84,7.07.45,15.11.8,22.28,1.24,25.38,3.18,50.85,3.74,76.19.11,5.19,1.64,10.71-4.76,11.34-9.09.9-18.6.09-27.56,1.26-4.66-1.01-13.09,1.51-17.22.31-3.81-1.11-2.57-9.5-2.74-12.5-1.76-31.17-3.78-62.75-4.56-93.91-.16-6.27,1.28-6.83,7.22-7.22,12.95-.86,27.01-1.25,40.06-1.55Z"/><path d="M93.01,441.5c3.28-.07,10.38-1.4,11.18,2.99l4.88,112.76c-.17,1.23-1.76,3.36-3.02,3.6-11.54.52-23.06.96-34.59,1.23-2.41.06-8.05,1.67-9.43-1.24-1.84-3.88-.55-8.48-.62-12.57-.42-26.45-2.72-53.71-6.66-79.86-.94-6.22-3.18-13.91-3.61-19.9-.19-2.66.83-4.76,3.48-5.48,12.8-.37,25.58-1.26,38.38-1.55Z"/><path d="M277.42,181.11c3.12-.1,7.2-.9,8.16,3.17.61,2.6.22,9.17.18,12.18-.36,24.36-3.27,49.32-8.45,73.12-1.44,6.63-3.24,15.85-5.55,22.05-2.17,5.83-7.03,3.59-12.17,3.88-7.85.45-15.68,1.2-23.57.98-2.19-.63-3.13-1.82-3.38-4.05-.56-5-.16-10.64-.4-15.67-1.3-28.26-3.37-56.57-4.15-84.84-.04-1.6-.24-5.1.2-6.43,1.16-3.52,8.61-2.29,11.57-2.43,12.52-.58,25.05-1.57,37.56-1.96Z"/><path d="M82.31,189.35c6.41-.14,10.06-1.89,10.73,5.91.97,11.16.74,22.55,1.27,33.75,1.03,21.92,2.77,43.97,3.33,65.89.11,4.21.33,7.48-4.75,8.05-8.12.91-17.23-.87-25.1.84l-28.23,1.04c-1.38-.75-2.82-2.08-2.89-3.74,2.92-36.7,9.34-73.03,19.35-108.38,1.78-4.07,11.13-2.47,15.07-2.64,3.7-.16,7.51-.64,11.22-.72Z"/><path d="M79.43,318.31c3.36-.08,10.9-1.5,11.59,2.99,1.36,8.9.8,20.05,1.24,29.25,1.04,21.81,2.1,43.65,2.88,65.51.1,2.68,1.03,7.3.77,9.76-.6,5.55-7.41,3.77-11.24,4.03-7.23.49-14.53,1.11-21.8,1.25-2.66.05-8.36.4-10.63-.1-.89-.2-1.87-1.04-2.24-1.87-10.13-34.61-11.72-70.56-9.4-106.43.27-1.56,1.93-2.39,3.34-2.83,11.83-.27,23.67-1.26,35.5-1.55Z"/><path d="M172.85,28.23c5.14-.7,5.88,1.17,6.27,5.87.7,8.38.4,17.5.81,25.97,1.78,36.48,3.69,72.96,5.28,109.46-.85,5.55-6.31,3.81-10.43,4.02-8.53.43-16.57,1.22-25.09.8-.96-.05-2.16.54-2.8.39-2.32-.54-2.62-4.77-2.75-6.74-.15-2.32.14-4.7.01-7.02-2.14-38.15-3.54-76.33-5.34-114.5.14-1.17,1.01-1.96,1.84-2.69,6.39-5.68,23.81-14.42,32.2-15.56Z"/><path d="M191.77,26.15c2.04-.46,8.24-.23,10.61-.08,5.84.35,18.72,2.75,23.78,5.45.88.47,2.05,1.69,2.27,2.67,1.84,40.93,3.86,81.78,5.42,122.71.12,3.04,1.6,10.73-.21,12.94-.45.55-1.91,1.33-2.62,1.49-1.6.37-5.32.5-7.22.61-6.42.37-13.01.25-19.36.36-3.76.07-7.7,2.11-9.08-3.24-1.57-45.57-4.65-91.07-6.37-136.59-.09-2.29-.05-5.68,2.78-6.32Z"/><path d="M155.59,438.61c3.3-.12,5.08,1.73,5.43,5.04,1.18,11.02.71,23.79,1.22,35.04,1.02,22.62,2.75,45.33,3.33,67.95.06,2.24.35,7.53-.12,9.39-.34,1.35-2.08,2.55-3.42,2.75-12.21-.16-24.44,1.33-36.6,1.7-2.44.07-5.22-.38-6.08-3.02-.43-1.31-.64-5.08-.72-6.69-1.19-22.75-1.53-45.64-2.46-68.41-.41-9.95-1.43-20.07-1.68-30.04-.05-2.01-.34-7.89.1-9.41,1.04-3.55,9.62-2.57,12.47-2.77,9.49-.67,19.02-1.19,28.53-1.53Z"/><path d="M217.74,436.15c3.99-.11,8.28-1.21,8.76,4.2-7.88,36.13-10.16,72.28-10.35,109.21-.01,2.61,1.15,5.41-2.44,6.59-11.49,1.2-23.14,1.26-34.7,1.75-1.93-.52-2.95-1.81-3.19-3.81-.53-4.48-.17-10.24-.38-14.86-1.36-28.81-2.64-57.66-3.7-86.52-.11-3.08-.79-6.83-.85-9.89-.15-7.2,11.25-4.91,15.86-5.14,10.32-.51,20.56-1.24,31-1.52Z"/><path d="M123.87,56.65c2.13-.56,5.08,1.22,5.43,3.43s-.12,5.09,0,7.41c1.86,33.13,4.12,66.53,4.97,99.68.09,3.63.78,7.93-3.92,8.47-4.03.47-8.69.19-12.77.41-10.27.55-20.56.84-30.89,1.21-7.31.27-15.36,1.71-22.63.85-2.95-.35-4.01-3.13-3.29-5.78,13.62-37.74,31.96-72.56,54.89-105.34,1.74-2.49,5.28-9.58,8.2-10.34Z"/><path d="M238.87,34.36c2.52-.31,4.84.05,7.26.65,8.59,2.13,11.91,4.1,16.47,11.53,19,30.9,31.15,76.9,29.32,113.24-.07,1.37-.31,5.4-.61,6.39-1.28,4.18-9.81,2.17-13.18,3.29-8.42-.03-16.73.62-25.14.79-3.35.07-6.17,1.73-8.24-2.43l-1.02-15.87c-1.56-36.62-2.71-73.32-4.75-109.88-.14-2.52-1.32-5.15-.11-7.71Z"/></svg>